<svg width="32" height="32" viewBox="0 0 32 32" fill="none" xmlns="http://www.w3.org/2000/svg">
<circle cx="16" cy="16" r="16"  />
<circle cx="16" cy="16" r="15.5" stroke="#444444"/>
<path d="M16.1 11.5L8.3 19.3C8.1 19.5 8 19.7 8 20V23C8 23.6 8.4 24 9 24H12C12.3 24 12.5 23.9 12.7 23.7L20.5 15.9L16.1 11.5Z" />
<path d="M9.00711 20.0071L16.1 12.9142L19.0858 15.9L11.9929 22.9929C11.9903 22.9955 11.9879 22.9978 11.9857 23H9V20.0143C9.00218 20.0121 9.00455 20.0097 9.00711 20.0071L9 20L9.00711 20.0071Z" stroke="#444444"  stroke-width="2"/>
<path d="M23.7 11.3L20.7 8.3C20.3 7.9 19.7 7.9 19.3 8.3L17.5 10.1L21.9 14.5L23.7 12.7C24.1 12.3 24.1 11.7 23.7 11.3Z" />
<path d="M22.9858 12L21.9 13.0858L18.9142 10.1L20 9.01421L22.9858 12Z" stroke="#444444" stroke-width="2"/>
</svg>
