<svg width="13" height="13" viewBox="0 0 13 13" fill="none" xmlns="http://www.w3.org/2000/svg">
<path d="M11.5586 4.43341L5.06689 10.9251C5.46273 11.0042 5.93773 11.0834 6.33356 11.0834C9.18356 11.0834 11.4002 8.62924 12.3502 7.20424C12.7461 6.65008 12.7461 5.93758 12.3502 5.38341C12.1919 5.14591 11.8752 4.82924 11.5586 4.43341Z" fill="#444444"/>
<path d="M11.3208 0.2375L9.18333 2.375C8.3125 1.9 7.3625 1.58333 6.33333 1.58333C3.48333 1.58333 1.26667 4.0375 0.316667 5.4625C-0.0791667 6.01667 -0.0791667 6.72917 0.316667 7.20417C0.7125 7.8375 1.425 8.62917 2.21667 9.34167L0.2375 11.3208C-0.0791667 11.6375 -0.0791667 12.1125 0.2375 12.4292C0.395833 12.5875 0.554167 12.6667 0.791667 12.6667C1.02917 12.6667 1.1875 12.5875 1.34583 12.4292L12.4292 1.34583C12.7458 1.02917 12.7458 0.554167 12.4292 0.2375C12.1125 -0.0791667 11.6375 -0.0791667 11.3208 0.2375ZM4.19583 7.3625C4.0375 7.04583 3.95833 6.72917 3.95833 6.33333C3.95833 4.9875 4.9875 3.95833 6.33333 3.95833C6.72917 3.95833 7.04583 4.0375 7.3625 4.19583L4.19583 7.3625Z" fill="#444444"/>
</svg>
